<svg width="49" height="48" viewBox="0 0 49 48" fill="none" xmlns="http://www.w3.org/2000/svg">
<path d="M39.83 30.67L38.23 29.47C38.23 29.47 37.57 23.12 36.41 21.89C34.32 19.69 32.99 16.47 32.11 13.43C31.56 11.55 31.17 10.88 29.48 10.85C29.1409 10.8824 28.8117 10.9819 28.5114 11.1427C28.2111 11.3035 27.9457 11.5224 27.7308 11.7867C27.5158 12.0509 27.3556 12.3553 27.2593 12.682C27.163 13.0088 27.1327 13.3514 27.17 13.69C27.1966 14.5438 27.2734 15.3953 27.4 16.24C27.8503 18.4804 28.5202 20.671 29.4 22.78L28.75 22.39L13.31 10.65C12.16 9.78001 10.5 9.39001 9.38002 10.89C8.26002 12.39 9.16002 13.78 10.31 14.64L18.31 20.64L20.7 22.45L7.91002 12.84C6.76002 11.97 5.10002 11.58 3.97002 13.08C2.84002 14.58 3.76002 16 4.90002 16.83L12.9 22.83L17.7 26.43L7.30002 18.64C6.15002 17.77 4.49002 17.38 3.36002 18.88C2.23002 20.38 3.15002 21.77 4.30002 22.63L12.3 28.63L16.3 31.63L8.30002 25.63C7.15002 24.76 5.52002 24.34 4.44002 25.77C3.36002 27.2 4.15002 28.77 5.30002 29.63L19.84 40.63C20.8914 41.4115 22.0892 41.9736 23.3622 42.2828C24.6351 42.592 25.9573 42.6421 27.25 42.43C28.06 43.02 29.65 44.23 29.65 44.23C31.7883 42.582 33.6719 40.6276 35.24 38.43C37.0506 36.0199 38.5899 33.4175 39.83 30.67Z" fill="#49992A"/>
<path d="M30.2299 23.48L27.8199 21.67L30.2299 23.48Z" fill="#93D870"/>
<path d="M39.71 31L39.83 30.72" stroke="#43722B" stroke-width="2" stroke-linecap="round" stroke-linejoin="round"/>
<path d="M38.1 28.4C37.85 26.53 37.69 20.93 36.83 20.02C34.74 17.81 32.99 16.47 32.11 13.43C31.56 11.55 31.17 10.88 29.48 10.85C29.1409 10.8824 28.8117 10.9819 28.5114 11.1427C28.2111 11.3035 27.9457 11.5224 27.7308 11.7867C27.5158 12.0509 27.3556 12.3553 27.2593 12.682C27.163 13.0088 27.1327 13.3514 27.17 13.69C27.1966 14.5438 27.2734 15.3953 27.4 16.24C27.8755 18.5977 28.5444 20.9122 29.4 23.16L13.31 11C12.16 10.14 10.5 9.75 9.38002 11.25C8.26002 12.75 9.16002 14.13 10.31 15L18.31 21L20.7 22.8L7.91002 13.21C6.76002 12.35 5.10002 11.96 3.97002 13.46C2.84002 14.96 3.76002 16.34 4.90002 17.21L12.9 23.21L17.7 26.82L7.30002 19C6.15002 18.14 4.49002 17.75 3.36002 19.25C2.23002 20.75 3.15002 22.14 4.30002 23L12.3 29L16.3 32L8.30002 26C7.15002 25.14 5.52002 24.71 4.44002 26.15C3.36002 27.59 4.15002 29.15 5.30002 30L19.83 40.68C20.8814 41.4615 22.0792 42.0236 23.3522 42.3328C24.6251 42.642 25.9473 42.6921 27.24 42.48" stroke="#165209" stroke-width="2" stroke-linecap="round" stroke-linejoin="round"/>
<path d="M30.2299 23.48L27.8199 21.67" stroke="#43722B" stroke-width="2" stroke-linecap="round" stroke-linejoin="round"/>
<path d="M46.4299 31.87L44.8299 30.67C44.8299 30.67 44.1699 24.31 43.0099 23.09C40.9499 20.6351 39.479 17.7412 38.7099 14.63C38.1599 12.75 37.77 12.08 36.08 12.05C35.7413 12.0812 35.4122 12.1795 35.112 12.3392C34.8118 12.499 34.5464 12.717 34.3313 12.9804C34.1162 13.2439 33.9558 13.5476 33.8595 13.8737C33.7631 14.1999 33.7326 14.542 33.7699 14.88C33.7965 15.7338 33.8733 16.5853 33.9999 17.43C34.6299 20.73 35.3099 23.43 35.3899 23.59L20.1499 12.19C18.9999 11.32 17.3399 10.93 16.2099 12.43C15.0799 13.93 15.9899 15.32 17.1399 16.18L25.1399 22.18L27.4999 24L14.7399 14.38C13.5899 13.52 11.9299 13.13 10.8099 14.63C9.68995 16.13 10.5899 17.51 11.7399 18.38L19.7399 24.38L24.4999 28L14.1399 20.18C12.9899 19.31 11.3199 18.93 10.1999 20.42C9.07995 21.91 9.97995 23.31 11.1299 24.18L19.1299 30.18L23.1299 33.18L15.1299 27.18C13.9799 26.32 12.3399 25.89 11.2599 27.33C10.1799 28.77 10.9699 30.33 12.1199 31.18L26.4299 41.88C28.9599 43.75 33.4999 44 33.4299 44C34.3291 44.5587 35.2683 45.05 36.24 45.47C39.1223 44.9601 41.6973 43.3592 43.4299 41C45.2873 38.3085 46.3289 35.1385 46.4299 31.87Z" fill="#6DAE4F"/>
<path d="M36.83 24.67L34.42 22.87L36.83 24.67Z" fill="#93D870"/>
<path d="M12.4999 1.65L13.2899 5.17L12.4999 1.65ZM23.6999 6L20.7599 8L23.6999 6ZM19.1799 1L17.0299 6.6L19.1799 1ZM46.2699 31.88C45.5498 31.1165 44.9979 30.2103 44.6499 29.22C44.4699 28.47 44.4199 27.69 44.2799 26.93C44.0599 25.76 43.8699 24 43.0099 23.09C40.9499 20.6351 39.479 17.7412 38.7099 14.63C38.1599 12.75 37.77 12.08 36.08 12.05C35.7413 12.0812 35.4122 12.1795 35.112 12.3392C34.8118 12.499 34.5464 12.717 34.3313 12.9804C34.1162 13.2439 33.9558 13.5476 33.8595 13.8737C33.7631 14.1999 33.7326 14.542 33.7699 14.88C33.7965 15.7338 33.8733 16.5853 33.9999 17.43C34.6299 20.73 35.3099 23.43 35.3899 23.59L20.1499 12.19C18.9999 11.32 17.3399 10.93 16.2099 12.43C15.0799 13.93 15.9899 15.32 17.1399 16.18L25.1399 22.18L27.4999 24L14.7399 14.38C13.5899 13.52 11.9299 13.13 10.8099 14.63C9.68995 16.13 10.5899 17.51 11.7399 18.38L19.7399 24.38L24.4999 28L14.1399 20.18C12.9899 19.31 11.3199 18.93 10.1999 20.42C9.07995 21.91 9.97995 23.31 11.1299 24.18L19.1299 30.18L23.1299 33.18L15.1299 27.18C13.9799 26.32 12.3399 25.89 11.2599 27.33C10.1799 28.77 10.9699 30.33 12.1199 31.18L26.4299 41.88C27.6121 42.7613 28.9804 43.3599 30.4299 43.63C31.0699 43.75 31.7499 43.81 32.4999 43.95C33.5744 44.1126 34.6149 44.4504 35.58 44.95C36.2508 45.2712 37.017 45.3318 37.7299 45.12C40.2286 44.2503 42.4092 42.6515 43.9899 40.53C45.4929 38.4944 46.3562 36.0577 46.4699 33.53C46.5645 32.9722 46.495 32.399 46.2699 31.88V31.88Z" stroke="#165209" stroke-width="2" stroke-linecap="round" stroke-linejoin="round"/>
</svg>
