<svg width="49" height="48" viewBox="0 0 49 48" fill="none" xmlns="http://www.w3.org/2000/svg">
<path fill-rule="evenodd" clip-rule="evenodd" d="M23.4 14.9C22.4973 13.91 21.4031 13.1134 20.1838 12.5582C18.9644 12.003 17.6451 11.7009 16.3056 11.6701C14.9662 11.6392 13.6344 11.8803 12.3907 12.3787C11.1471 12.8772 10.0174 13.6226 9.07005 14.57C8.12266 15.5174 7.37722 16.6471 6.87878 17.8907C6.38034 19.1343 6.13926 20.4661 6.17011 21.8056C6.20095 23.145 6.50309 24.4643 7.05824 25.6837C7.6134 26.9031 8.41005 27.9972 9.40005 28.9L24.5 44L39.6 28.93C40.7147 27.8046 41.5461 26.4305 42.0258 24.9209C42.5054 23.4112 42.6196 21.8092 42.3588 20.2468C42.0981 18.6845 41.47 17.2063 40.5261 15.9343C39.5823 14.6622 38.3498 13.6325 36.93 12.93C35.5854 12.2608 34.1019 11.9182 32.6 11.93C31.2974 11.9307 30.0079 12.1901 28.8062 12.6931C27.6046 13.196 26.5148 13.9326 25.6 14.86L24.5 16L23.4 14.9Z" fill="#DF704D"/>
<path d="M23.4 14.88C21.5398 13.0798 19.0474 12.0815 16.4589 12.1C13.8703 12.1184 11.3923 13.152 9.55797 14.9785C7.7236 16.805 6.67935 19.2785 6.64981 21.867C6.62028 24.4554 7.60781 26.9521 9.40003 28.82L24.5 43.8L39.6 28.8C40.7027 27.6879 41.5247 26.3291 41.9978 24.8361C42.4709 23.3431 42.5815 21.7589 42.3206 20.2147C42.0596 18.6704 41.4346 17.2105 40.4972 15.9559C39.5597 14.7013 38.337 13.688 36.93 13C35.5854 12.3308 34.1019 11.9882 32.6 12V12C31.298 11.9989 30.0087 12.2564 28.8071 12.7577C27.6054 13.259 26.5153 13.994 25.6 14.92L24.5 16L23.4 14.88Z" stroke="#77280C" stroke-width="2" stroke-linecap="round" stroke-linejoin="round"/>
</svg>
