<svg width="49" height="48" viewBox="0 0 49 48" fill="none" xmlns="http://www.w3.org/2000/svg">
<path d="M27.5 44H21.5C20.9696 44 20.4609 43.7893 20.0858 43.4142C19.7107 43.0391 19.5 42.5304 19.5 42V37H29.5V42C29.5 42.5304 29.2893 43.0391 28.9142 43.4142C28.5391 43.7893 28.0304 44 27.5 44Z" fill="#C07800"/>
<path d="M21.5 37L29.5 37.07C29.3397 35.8828 29.3701 34.6776 29.59 33.5C29.7742 32.9235 30.0366 32.3751 30.37 31.87C30.5587 31.6214 30.7696 31.3905 31 31.18L31.14 31.06C32.4699 29.9848 33.5491 28.6322 34.3022 27.0967C35.0552 25.5612 35.464 23.8798 35.5 22.17C35.5 19.2526 34.3411 16.4547 32.2782 14.3918C30.2153 12.3289 27.4174 11.17 24.5 11.17C21.5826 11.17 18.7847 12.3289 16.7218 14.3918C14.6589 16.4547 13.5 19.2526 13.5 22.17V22.23C13.5197 23.8865 13.8992 25.519 14.6124 27.0143C15.3255 28.5096 16.3551 29.8321 17.63 30.89C18.3605 31.723 18.9576 32.6642 19.4 33.68C19.8385 34.6542 20.109 35.6956 20.2 36.76L20.5 37" fill="#F5BB5C"/>
<path d="M24.5 2V6.77M12.5 5.82L14.92 9L12.5 5.82ZM36.5 5.82L34.08 9L36.5 5.82Z" stroke="#5D3B01" stroke-width="1.91" stroke-linecap="round" stroke-linejoin="round"/>
<path d="M27.5 44H21.5C20.9695 43.9499 20.4749 43.7098 20.1074 43.3239C19.7399 42.938 19.5242 42.4323 19.5 41.9V37H29.5V41.9C29.4758 42.4323 29.2601 42.938 28.8926 43.3239C28.5251 43.7098 28.0305 43.9499 27.5 44V44Z" stroke="#5D3B01" stroke-width="2" stroke-linecap="round" stroke-linejoin="round"/>
<path d="M29.5 38C29.5 34.37 29.91 33.53 29.91 33.53C30.2419 32.3706 30.8975 31.3299 31.8 30.53C32.2599 30.1019 32.6877 29.6407 33.08 29.15C33.8497 28.1717 34.4605 27.0783 34.89 25.91C35.31 24.7211 35.5297 23.4708 35.54 22.21V22.15C35.5533 19.2078 34.398 16.3807 32.3279 14.29C30.2577 12.1992 27.4422 11.0159 24.5 11V11C21.5605 11.0238 18.7507 12.2137 16.688 14.3082C14.6254 16.4027 13.4787 19.2304 13.5 22.17V22.23C13.5104 23.4908 13.7301 24.7411 14.15 25.93C14.5796 27.0983 15.1904 28.1917 15.96 29.17C16.3524 29.6607 16.7802 30.1219 17.24 30.55C18.1425 31.3499 18.7982 32.3906 19.13 33.55C19.13 33.55 19.5 34.39 19.5 38" stroke="#5D3B01" stroke-width="2" stroke-linecap="round" stroke-linejoin="round"/>
</svg>
