<svg width="49" height="48" viewBox="0 0 49 48" fill="none" xmlns="http://www.w3.org/2000/svg">
<path d="M25.89 22H10.63C8.62999 22 7.42999 24.11 7.50999 25.92C7.56889 26.7484 7.94461 27.5223 8.55912 28.081C9.17364 28.6396 9.97974 28.9401 10.81 28.92H11.38C11.0162 28.9277 10.6576 29.0076 10.325 29.1549C9.99228 29.3022 9.69214 29.5141 9.44194 29.7783C9.19174 30.0424 8.99644 30.3536 8.86737 30.6938C8.73829 31.034 8.678 31.3964 8.68999 31.76C8.69036 32.4749 8.96032 33.1633 9.44597 33.6879C9.93163 34.2125 10.5973 34.5346 11.31 34.59C10.8848 34.9233 10.5639 35.3714 10.3853 35.8812C10.2066 36.3911 10.1776 36.9414 10.3017 37.4672C10.4258 37.993 10.6978 38.4723 11.0855 38.8485C11.4733 39.2246 11.9607 39.4819 12.49 39.59C12.1566 40.2003 12.0537 40.9101 12.2 41.59C12.372 42.2482 12.7626 42.8284 13.3077 43.2354C13.8528 43.6424 14.52 43.8521 15.2 43.83H23.38C24.4495 43.8236 25.5141 43.6859 26.55 43.42L31.68 41.92C31.98 41.83 36.42 41.92 38.42 41.92C41.99 41.78 42.95 25.4 38.42 25.4C38.42 25.4 36.77 25.46 36.42 25.4C36.26 25.4 35.9 24.72 35.01 23.76L34.93 23.66C33.63 22.25 32.15 20.43 31.11 19.4C28.58 16.92 26.48 14.79 25.02 11.56C24.3 9.83 24.21 9 22.5 9C21.8118 9.09672 21.1852 9.44857 20.7443 9.98575C20.3035 10.5229 20.0806 11.2062 20.12 11.9C20.1961 12.8561 20.3229 13.8074 20.5 14.75C21.13 18.13 23.93 21.83 24.01 22" fill="#378FE9"/>
<path d="M23.99 23H10.63C8.62995 23 7.41995 24.19 7.49995 26C7.55648 26.8311 7.93289 27.6079 8.55011 28.1673C9.16733 28.7268 9.97733 29.0252 10.81 29H11.38C10.647 29.0209 9.95221 29.3316 9.44796 29.864C8.94371 30.3964 8.67112 31.107 8.68995 31.84C8.69032 32.5549 8.96028 33.2433 9.44593 33.7679C9.93159 34.2925 10.5972 34.6146 11.31 34.67V34.67C10.8848 35.0033 10.5639 35.4514 10.3852 35.9612C10.2065 36.4711 10.1775 37.0214 10.3016 37.5472C10.4257 38.073 10.6977 38.5523 11.0855 38.9285C11.4733 39.3046 11.9606 39.5619 12.49 39.67C12.1566 40.2803 12.0537 40.9901 12.2 41.67C12.3719 42.3282 12.7625 42.9084 13.3076 43.3154C13.8527 43.7224 14.52 43.9321 15.2 43.91H23.38C24.4494 43.9036 25.5141 43.7659 26.55 43.5L31.68 42C31.98 41.91 36.42 42 38.42 42C41.99 41.86 42.95 25.48 38.42 25.48C38.42 25.48 36.77 25.54 36.42 25.48C36.26 25.48 35.9 24.8 35.01 23.84L34.93 23.74C33.63 22.33 32.15 20.51 31.11 19.48C28.58 17 26.48 14.88 25.02 11.64C24.3 9.87 24.21 9 22.5 9C21.8006 9.0708 21.1576 9.41557 20.7116 9.95898C20.2657 10.5024 20.053 11.2002 20.12 11.9C20.196 12.8561 20.3229 13.8074 20.5 14.75C21.13 18.13 23.93 22.75 24.01 22.96L23.99 23Z" stroke="#004182" stroke-width="2" stroke-linecap="round" stroke-linejoin="round"/>
</svg>
