<svg width="49" height="48" viewBox="0 0 49 48" fill="none" xmlns="http://www.w3.org/2000/svg">
<path d="M25 41C34.1127 41 41.5 33.6127 41.5 24.5C41.5 15.3873 34.1127 8 25 8C15.8873 8 8.5 15.3873 8.5 24.5C8.5 33.6127 15.8873 41 25 41Z" fill="#DEB8DC" stroke="#523951" stroke-width="2" stroke-miterlimit="10"/>
<path d="M15.5 33.66L26.98 31.74C27.2284 31.6972 27.4828 31.7042 27.7285 31.7608C27.9742 31.8173 28.2062 31.9221 28.4109 32.0692C28.6157 32.2162 28.7891 32.4025 28.9212 32.6173C29.0532 32.832 29.1412 33.0709 29.18 33.32C29.2359 33.812 29.1074 34.3073 28.8192 34.71C28.5311 35.1127 28.1037 35.3942 27.62 35.5L22.81 36.31C23.0144 36.2766 23.2236 36.2851 23.4247 36.3349C23.6258 36.3848 23.8147 36.4749 23.98 36.6C24.31 36.8389 24.5328 37.1981 24.6 37.6C24.6645 38.0038 24.5749 38.4171 24.3489 38.758C24.1229 39.0988 23.7771 39.3422 23.38 39.44C23.6014 39.5535 23.793 39.7178 23.9389 39.9193C24.0849 40.1209 24.1812 40.3541 24.22 40.6C24.2814 40.9715 24.2162 41.353 24.0348 41.683C23.8535 42.0131 23.5665 42.2726 23.22 42.42C23.4623 42.7547 23.5629 43.1715 23.5 43.58C23.4586 43.9676 23.2882 44.3301 23.0162 44.6094C22.7442 44.8886 22.3863 45.0684 22 45.12L21.44 45.24C19.9866 45.5467 18.5266 45.7867 17.06 45.96C15.385 45.9805 13.7115 45.85 12.06 45.57C11.5044 45.4504 10.989 45.1897 10.5634 44.8132C10.1379 44.4366 9.81637 43.9568 9.62995 43.42C8.53995 41.15 7.93995 36.86 9.27995 35.62C10.1292 35.0526 10.7494 34.2021 11.03 33.22C11.67 31.75 12.34 30.06 12.85 28.62C13.36 27.18 13.56 26.53 14.51 26.18C14.9682 26.0443 15.4605 26.0825 15.8923 26.2873C16.3241 26.4922 16.6651 26.8492 16.85 27.29C16.9931 28.2899 16.9456 29.3078 16.71 30.29C16.47 32.29 16.46 32.75 16.71 33.43" fill="#DEB8DC"/>
<path d="M22.5 27H25.5M26.98 31.74C27.2284 31.6972 27.4828 31.7042 27.7285 31.7608C27.9742 31.8173 28.2062 31.9221 28.4109 32.0692C28.6157 32.2162 28.7891 32.4025 28.9212 32.6173C29.0532 32.832 29.1412 33.0709 29.18 33.32C29.2359 33.812 29.1074 34.3073 28.8192 34.71C28.5311 35.1127 28.1037 35.3942 27.62 35.5L22.81 36.31C23.0144 36.2766 23.2236 36.2851 23.4247 36.3349C23.6258 36.3848 23.8147 36.4749 23.98 36.6C24.31 36.8389 24.5328 37.1981 24.6 37.6C24.6645 38.0038 24.5749 38.4172 24.3489 38.758C24.1229 39.0988 23.777 39.3423 23.38 39.44C23.6014 39.5535 23.793 39.7178 23.9389 39.9194C24.0849 40.1209 24.1812 40.3541 24.22 40.6C24.2814 40.9715 24.2162 41.353 24.0348 41.683C23.8535 42.0131 23.5665 42.2726 23.22 42.42C23.4623 42.7547 23.5629 43.1715 23.5 43.58C23.4586 43.9676 23.2882 44.3301 23.0162 44.6094C22.7442 44.8886 22.3863 45.0684 22 45.12L21.44 45.24C19.9866 45.5467 18.5266 45.7867 17.06 45.96C15.385 45.9805 13.7115 45.85 12.06 45.57C11.5044 45.4504 10.989 45.1897 10.5634 44.8132C10.1379 44.4366 9.81637 43.9568 9.62995 43.42C8.53995 41.15 7.93995 36.86 9.27995 35.62C10.1292 35.0526 10.7494 34.2021 11.03 33.22C11.67 31.75 12.34 30.06 12.85 28.62C13.36 27.18 13.56 26.53 14.51 26.18C14.9682 26.0443 15.4605 26.0825 15.8923 26.2873C16.3241 26.4922 16.6651 26.8492 16.85 27.29C16.9931 28.2899 16.9456 29.3078 16.71 30.29C16.47 32.29 16.46 32.75 16.71 33.43L26.98 31.74ZM16.5 14C17.2324 13.2632 18.2125 12.8249 19.25 12.77C20.2792 12.6198 21.3274 12.8586 22.19 13.44L16.5 14Z" stroke="#523951" stroke-width="2" stroke-linecap="round" stroke-linejoin="round"/>
<path d="M19 22C20.1046 22 21 21.1046 21 20C21 18.8954 20.1046 18 19 18C17.8954 18 17 18.8954 17 20C17 21.1046 17.8954 22 19 22Z" fill="#523951"/>
<path d="M30.5 24C31.6046 24 32.5 23.1046 32.5 22C32.5 20.8954 31.6046 20 30.5 20C29.3954 20 28.5 20.8954 28.5 22C28.5 23.1046 29.3954 24 30.5 24Z" fill="#523951"/>
<path d="M29.5 16.68C30.4657 16.3097 31.5343 16.3097 32.5 16.68C33.4987 16.9304 34.3705 17.539 34.95 18.39" stroke="#523951" stroke-width="2" stroke-linecap="round" stroke-linejoin="round"/>
</svg>
