<svg width="49" height="48" viewBox="0 0 49 48" fill="none" xmlns="http://www.w3.org/2000/svg">
<path d="M14.4999 32H13.8099C13.0199 31.71 8.98995 30.17 6.27995 29.41C6.11401 29.3652 5.96531 29.2717 5.85301 29.1416C5.74072 29.0115 5.66999 28.8507 5.64995 28.68C5.5378 28.0643 5.67056 27.4292 6.01995 26.91C6.15506 26.7227 6.33443 26.5717 6.54206 26.4705C6.74969 26.3693 6.97914 26.321 7.20995 26.33C7.44847 26.3292 7.68532 26.3698 7.90995 26.45C8.44781 26.6628 8.95021 26.9562 9.39995 27.32L9.58995 27.47L10.8399 28.34C11.2999 28.67 11.7099 28.95 11.9999 29.17L14.9199 30.36C15.3099 30.54 16.9199 31.28 16.9199 31.7C16.9199 32.12 15.0599 32.07 14.6699 32.08L14.4999 32Z" fill="#9983B1"/>
<path d="M43.2501 44.52C39.277 44.4254 35.3178 44.0141 31.4101 43.29H31.2001C28.2395 42.8789 25.3097 42.2709 22.4301 41.47C19.8701 40.7 17.3501 39.7 14.9101 38.74L13.8201 38.31C11.5101 37.41 9.63006 36.65 7.92006 35.92L7.28006 35.65C6.24887 35.2494 5.2465 34.7783 4.28006 34.24C2.95006 33.46 2.54006 32.46 3.09006 31.24V31.15C3.25513 30.7685 3.53896 30.4505 3.89932 30.2433C4.25968 30.0361 4.6773 29.9507 5.09006 30H5.20006C5.39326 29.99 5.58686 29.99 5.78006 30C7.90006 30.23 14.0501 32.57 15.2601 33L19.2601 33.14H19.3601L28.3601 33.45C27.6601 32.81 25.9101 31.7 21.6101 30.59C20.7901 30.38 20.0501 30.14 19.8801 29.59C19.7428 29.1371 19.7437 28.6535 19.8826 28.201C20.0215 27.7486 20.2922 27.3478 20.6601 27.05C21.2168 26.727 21.8584 26.5806 22.5001 26.63C23.268 26.6298 24.0334 26.7204 24.7801 26.9C25.2401 27.02 25.6101 27.14 25.9701 27.25C26.9034 27.5713 27.8692 27.7893 28.8501 27.9C30.4261 28.1465 31.9807 28.5142 33.5001 29C38.5001 30.36 39.5001 32.87 40.0901 34.38C39.9001 33.76 40.0901 34.22 40.1901 33.99L40.3301 33.79H41.1001C41.9601 33.79 43.6001 33.7 43.6101 33.7C43.8021 33.6935 43.9907 33.7522 44.145 33.8666C44.2994 33.981 44.4104 34.1444 44.4601 34.33C46.1701 40.56 43.8201 44.02 43.7201 44.16C43.6706 44.2481 43.6017 44.3236 43.5184 44.3808C43.4352 44.438 43.34 44.4754 43.2401 44.49L43.2501 44.52Z" fill="#BBA9D1"/>
<path fill-rule="evenodd" clip-rule="evenodd" d="M15.13 11.35C14.6707 10.8709 14.1206 10.488 13.5117 10.2237C12.9029 9.95946 12.2475 9.81903 11.5839 9.81066C10.9202 9.80228 10.2615 9.92612 9.6462 10.175C9.03089 10.4238 8.47128 10.7926 8.00001 11.26L7.91001 11.35C6.9487 12.3297 6.41016 13.6475 6.41016 15.02C6.41016 16.3926 6.9487 17.7103 7.91001 18.69L15.7 26.59L23.5 18.69C24.4613 17.7103 24.9999 16.3926 24.9999 15.02C24.9999 13.6475 24.4613 12.3297 23.5 11.35C23.0303 10.8676 22.4691 10.4839 21.8492 10.2211C21.2293 9.95841 20.5633 9.82204 19.89 9.82C19.2179 9.81999 18.5527 9.95547 17.9342 10.2184C17.3156 10.4812 16.7564 10.8661 16.29 11.35L15.72 11.93L15.13 11.35Z" fill="#DF704D"/>
<path d="M44.15 34.32C45.256 35.7405 45.7846 37.5263 45.63 39.32C45.3678 41.2586 44.5792 43.0882 43.3499 44.61C42.9399 45.01 28.16 43.13 24.7 42.45C21.24 41.77 4.54995 34.43 3.90995 34C3.26995 33.57 3.20995 30.88 5.03995 30.31C6.86995 29.74 10.8999 32.46 14.5699 33.06C18.7738 33.6289 23.0082 33.9428 27.25 34C29.73 34 24.57 31.84 23.35 31.36C22.13 30.88 20.15 30.49 19.74 29.2C19.33 27.91 20.66 26.96 21.74 26.96C23.7477 27.2556 25.7209 27.7514 27.6299 28.44C30.3209 28.3579 32.9999 28.8311 35.5 29.83C37.5516 30.7078 39.2122 32.3044 40.1699 34.32C40.4999 35 43.79 34 44.15 34.32Z" stroke="#493D57" stroke-width="2"/>
<path d="M5.97004 30.17C5.04004 28.17 6.19004 27 7.55004 27C8.91004 27 9.95004 28.48 11.92 29.83C14.1469 31.2405 16.4468 32.5323 18.81 33.7" stroke="#493D57" stroke-width="2"/>
<path d="M14.8601 10.63C13.8249 9.61325 12.4286 9.04857 10.9777 9.05982C9.52669 9.07107 8.1394 9.65732 7.12007 10.69C6.09324 11.7296 5.51083 13.1277 5.4959 14.5888C5.48097 16.0499 6.0347 17.4596 7.04007 18.52L15.5001 27L23.9301 18.51C24.5481 17.8768 25.008 17.1066 25.2721 16.262C25.5362 15.4175 25.5972 14.5225 25.4501 13.65C25.3103 12.7804 24.9653 11.9567 24.4436 11.2471C23.9218 10.5376 23.2384 9.96265 22.4501 9.57C21.6891 9.18154 20.8444 8.98581 19.9901 9C19.2664 9.00522 18.551 9.15372 17.885 9.43692C17.2191 9.72011 16.6158 10.1324 16.1101 10.65L15.4701 11.26L14.8601 10.63Z" stroke="#77280C" stroke-width="2" stroke-linecap="round" stroke-linejoin="round"/>
</svg>
